<svg width="20" height="20" viewBox="0 0 20 20" fill="none" xmlns="http://www.w3.org/2000/svg">
<path fill-rule="evenodd" clip-rule="evenodd" d="M19 10C19 14.9706 14.9706 19 10 19C5.02944 19 1 14.9706 1 10C1 5.02944 5.02944 1 10 1C14.9706 1 19 5.02944 19 10ZM6.8227 11.8273C7.08631 12.0909 7.51369 12.0909 7.7773 11.8273L10 9.60459L12.2227 11.8273C12.4863 12.0909 12.9137 12.0909 13.1773 11.8273C13.4409 11.5637 13.4409 11.1363 13.1773 10.8727L10.4773 8.1727C10.2137 7.9091 9.78631 7.9091 9.5227 8.1727L6.8227 10.8727C6.5591 11.1363 6.5591 11.5637 6.8227 11.8273Z" fill="white"/>
</svg>
