<svg width="15" height="14" viewBox="0 0 15 14" fill="none" xmlns="http://www.w3.org/2000/svg">
<path d="M2.25 3.72511C2.25 3.44251 2.45147 3.21342 2.7 3.21342L4.25414 3.21314C4.56293 3.20425 4.83534 2.98099 4.94041 2.65069C4.94318 2.64201 4.94635 2.6313 4.95775 2.59243L5.02471 2.36395C5.06569 2.22386 5.10139 2.10182 5.15135 1.99273C5.34872 1.56175 5.71388 1.26248 6.13586 1.18586C6.24267 1.16646 6.35578 1.16654 6.48562 1.16664H8.51448C8.64432 1.16654 8.75743 1.16646 8.86424 1.18586C9.28622 1.26248 9.65138 1.56175 9.84875 1.99273C9.89871 2.10182 9.93441 2.22386 9.97539 2.36395L10.0424 2.59243C10.0537 2.6313 10.0569 2.64201 10.0597 2.65069C10.1648 2.98099 10.4912 3.20452 10.8 3.21342H12.3C12.5485 3.21342 12.75 3.44251 12.75 3.72511C12.75 4.00771 12.5485 4.2368 12.3 4.2368H2.7C2.45147 4.2368 2.25 4.00771 2.25 3.72511Z" fill="white"/>
<path fill-rule="evenodd" clip-rule="evenodd" d="M7.2641 12.8334H7.7359C9.35915 12.8334 10.1708 12.8334 10.6985 12.3166C11.2262 11.7998 11.2802 10.9521 11.3882 9.25666L11.5437 6.81372C11.6023 5.89381 11.6316 5.43385 11.3669 5.14238C11.1022 4.85091 10.6551 4.85091 9.76097 4.85091H5.23903C4.34491 4.85091 3.89785 4.85091 3.63311 5.14238C3.36838 5.43385 3.39767 5.89381 3.45626 6.81372L3.61185 9.25666C3.71982 10.9521 3.77381 11.7998 4.30152 12.3166C4.82923 12.8334 5.64085 12.8334 7.2641 12.8334ZM6.47699 7.10998C6.45295 6.8569 6.23856 6.67225 5.99813 6.69756C5.75771 6.72287 5.58229 6.94855 5.60634 7.20163L5.898 10.2718C5.92205 10.5249 6.13644 10.7095 6.37687 10.6842C6.61729 10.6589 6.7927 10.4332 6.76866 10.1802L6.47699 7.10998ZM9.00187 6.69756C9.24229 6.72287 9.4177 6.94855 9.39366 7.20163L9.102 10.2718C9.07795 10.5249 8.86356 10.7095 8.62313 10.6842C8.38271 10.6589 8.20729 10.4332 8.23134 10.1802L8.523 7.10998C8.54705 6.8569 8.76144 6.67225 9.00187 6.69756Z" fill="white"/>
</svg>
