<svg width="50" height="35" viewBox="0 0 50 35" fill="none" xmlns="http://www.w3.org/2000/svg">
<path d="M0 31.6668C18.8243 28.2448 29.6827 27.8468 50 31.6668V32.7179C30.4767 31.0696 19.5249 31.2654 0 32.7179V31.6668Z" fill="url(#paint0_linear_623_2315)"/>
<path d="M24.9999 1.66663L38.0486 27.7639C39.7108 31.0884 37.2933 35 33.5764 35H16.4234C12.7065 35 10.289 31.0884 11.9513 27.7639L24.9999 1.66663Z" fill="#C57E3B"/>
<g filter="url(#filter0_d_623_2315)">
<path d="M24.9999 0L37.8094 24.3379C39.5617 27.6675 37.1473 31.6667 33.3848 31.6667H16.6151C12.8525 31.6667 10.4381 27.6675 12.1905 24.3379L24.9999 0Z" fill="url(#paint1_linear_623_2315)"/>
<path d="M24.9999 0L37.8094 24.3379C39.5617 27.6675 37.1473 31.6667 33.3848 31.6667H16.6151C12.8525 31.6667 10.4381 27.6675 12.1905 24.3379L24.9999 0Z" fill="url(#paint2_linear_623_2315)"/>
<path d="M12.4117 24.4544L24.9999 0.536773L37.5881 24.4544C39.2529 27.6174 36.9592 31.4167 33.3848 31.4167H16.6151C13.0406 31.4167 10.7469 27.6174 12.4117 24.4544Z" stroke="url(#paint3_linear_623_2315)" stroke-width="0.5"/>
</g>
<circle cx="25" cy="23.3333" r="4.16667" stroke="white" stroke-width="1.66667"/>
<defs>
<filter id="filter0_d_623_2315" x="10.6082" y="0" width="28.7834" height="34.3333" filterUnits="userSpaceOnUse" color-interpolation-filters="sRGB">
<feFlood flood-opacity="0" result="BackgroundImageFix"/>
<feColorMatrix in="SourceAlpha" type="matrix" values="0 0 0 0 0 0 0 0 0 0 0 0 0 0 0 0 0 0 127 0" result="hardAlpha"/>
<feOffset dy="1.66667"/>
<feGaussianBlur stdDeviation="0.5"/>
<feComposite in2="hardAlpha" operator="out"/>
<feColorMatrix type="matrix" values="0 0 0 0 0 0 0 0 0 0 0 0 0 0 0 0 0 0 0.25 0"/>
<feBlend mode="normal" in2="BackgroundImageFix" result="effect1_dropShadow_623_2315"/>
<feBlend mode="normal" in="SourceGraphic" in2="effect1_dropShadow_623_2315" result="shape"/>
</filter>
<linearGradient id="paint0_linear_623_2315" x1="25" y1="28.3334" x2="25" y2="32.7179" gradientUnits="userSpaceOnUse">
<stop stop-color="#F7DDAE"/>
<stop offset="1" stop-color="#EFB318"/>
</linearGradient>
<linearGradient id="paint1_linear_623_2315" x1="11.0037" y1="25.9829" x2="38.1217" y2="25.9829" gradientUnits="userSpaceOnUse">
<stop offset="0.501712" stop-color="#F7D9A1"/>
<stop offset="0.530558" stop-color="#C8955D"/>
</linearGradient>
<linearGradient id="paint2_linear_623_2315" x1="24.9999" y1="0" x2="24.9999" y2="31.6667" gradientUnits="userSpaceOnUse">
<stop stop-color="white" stop-opacity="0"/>
<stop offset="0.59" stop-color="#FFBA38" stop-opacity="0.47"/>
<stop offset="1" stop-color="#ECB040"/>
</linearGradient>
<linearGradient id="paint3_linear_623_2315" x1="13.8888" y1="5.27778" x2="33.0527" y2="29.118" gradientUnits="userSpaceOnUse">
<stop stop-color="#F3C451"/>
<stop offset="0.535" stop-color="#F9D76E"/>
<stop offset="1" stop-color="#FEE7AF"/>
</linearGradient>
</defs>
</svg>
