<svg width="20" height="20" viewBox="0 0 20 20" fill="none" xmlns="http://www.w3.org/2000/svg">
<path fill-rule="evenodd" clip-rule="evenodd" d="M19 10C19 14.9706 14.9706 19 10 19C5.02944 19 1 14.9706 1 10C1 5.02944 5.02944 1 10 1C14.9706 1 19 5.02944 19 10ZM13.3882 6.61177C13.6323 6.85585 13.6323 7.25157 13.3882 7.49565L10.8839 10L13.3882 12.5043C13.6323 12.7484 13.6323 13.1442 13.3882 13.3882C13.1442 13.6323 12.7484 13.6323 12.5043 13.3882L10 10.8839L7.49567 13.3882C7.2516 13.6323 6.85587 13.6323 6.61179 13.3882C6.36771 13.1441 6.36771 12.7484 6.61179 12.5043L9.11612 10L6.61179 7.49567C6.36771 7.2516 6.36771 6.85587 6.61179 6.61179C6.85587 6.36771 7.2516 6.36771 7.49568 6.61179L10 9.11612L12.5043 6.61177C12.7484 6.36769 13.1442 6.36769 13.3882 6.61177Z" fill="white"/>
</svg>
