<svg width="14" height="14" viewBox="0 0 14 14" fill="none" xmlns="http://www.w3.org/2000/svg">
<circle cx="5.25057" cy="3.50002" r="2.33333" fill="white"/>
<ellipse cx="5.25057" cy="9.91726" rx="4.08333" ry="2.33333" fill="white"/>
<path d="M12.2498 9.91693C12.2498 10.8834 11.0624 11.6669 9.61267 11.6669C10.0398 11.2001 10.3335 10.614 10.3335 9.91774C10.3335 9.22063 10.0391 8.63407 9.61119 8.16695C11.0609 8.16695 12.2498 8.95043 12.2498 9.91693Z" fill="white"/>
<path d="M10.4998 3.50043C10.4998 4.46693 9.71632 5.25043 8.74982 5.25043C8.53907 5.25043 8.33702 5.21317 8.1499 5.14489C8.42587 4.6595 8.58348 4.09805 8.58348 3.49978C8.58348 2.90195 8.4261 2.34088 8.15051 1.85574C8.33747 1.7876 8.5393 1.75043 8.74982 1.75043C9.71632 1.75043 10.4998 2.53393 10.4998 3.50043Z" fill="white"/>
</svg>
