<svg width="14.000000" height="14.000000" viewBox="0 0 14 14" fill="none" xmlns="http://www.w3.org/2000/svg" xmlns:xlink="http://www.w3.org/1999/xlink">
	<desc>
			Created with Pixso.
	</desc>
	<defs>
		<clipPath id="clip7_725">
			<rect id="Icon" width="14.000000" height="14.000000" fill="white" fill-opacity="0"/>
		</clipPath>
	</defs>
	<g clip-path="url(#clip7_725)">
		<path id="Vector" d="M6.5625 12.3783C6.56372 11.2259 6.57776 10.4671 6.7384 9.84714C6.16675 9.89413 5.60938 9.84818 5.09265 9.71866C4.85828 9.65991 4.71582 9.42227 4.77466 9.1879C4.83337 8.95352 5.07092 8.81116 5.3053 8.8699C5.84705 9.00565 6.45483 9.03134 7.08142 8.92175C7.09265 8.91977 7.10388 8.91824 7.11511 8.91714C7.64734 7.94214 8.52551 7.18872 9.59021 6.81616C10.259 6.58209 11.0619 6.56384 12.3783 6.56253L13.2557 6.56253C13.0312 3.30334 10.3162 0.729126 7 0.729126C3.53662 0.729126 0.729126 3.53668 0.729126 6.99997C0.729126 10.3162 3.30334 13.0312 6.5625 13.2558L6.5625 12.3783ZM9.02722 5.55081C9.15234 6.01758 9.00146 6.46359 8.69031 6.54697C8.37903 6.63034 8.02539 6.31955 7.90039 5.85275C7.77527 5.38596 7.92615 4.93997 8.2373 4.8566C8.54846 4.77319 8.90222 5.08401 9.02722 5.55081ZM5.64661 6.4567C5.77161 6.92349 5.62085 7.36948 5.30957 7.45285C4.99841 7.53625 4.64478 7.22543 4.51965 6.75867C4.39465 6.29187 4.54553 5.84589 4.85669 5.76248C5.16785 5.67911 5.52148 5.98993 5.64661 6.4567ZM12.3312 7.4379C11.0153 7.44098 10.3856 7.46481 9.87915 7.64206C8.83191 8.00851 8.00854 8.83191 7.64209 9.87915C7.46484 10.3856 7.44092 11.0153 7.43787 12.3312L7.43787 13.2557C7.65564 13.2557 7.8645 13.1689 8.01807 13.0145L12.9806 8.0271C13.1382 7.86874 13.2355 7.66034 13.2557 7.4379L12.3312 7.4379Z" fill="#FFFFFF" fill-opacity="1.000000" fill-rule="evenodd"/>
	</g>
</svg>
