<svg width="21" height="21" viewBox="0 0 21 21" fill="none" xmlns="http://www.w3.org/2000/svg">
<path fill-rule="evenodd" clip-rule="evenodd" d="M10.5 19.0298C5.52944 19.0298 1.5 15.0003 1.5 10.0298C1.5 5.05922 5.52944 1.02979 10.5 1.02979C15.4706 1.02979 19.5 5.05922 19.5 10.0298C19.5 15.0003 15.4706 19.0298 10.5 19.0298ZM8.6727 6.85249C8.4091 7.11609 8.4091 7.54348 8.6727 7.80708L10.8954 10.0298L8.6727 12.2525C8.4091 12.5161 8.4091 12.9435 8.6727 13.2071C8.93631 13.4707 9.36369 13.4707 9.6273 13.2071L12.3273 10.5071C12.5909 10.2435 12.5909 9.81609 12.3273 9.55249L9.6273 6.85249C9.36369 6.58888 8.93631 6.58888 8.6727 6.85249Z" fill="white"/>
</svg>
