<svg width="20" height="21" viewBox="0 0 20 21" fill="none" xmlns="http://www.w3.org/2000/svg">
<path fill-rule="evenodd" clip-rule="evenodd" d="M19 10.6136C19 15.5842 14.9706 19.6136 10 19.6136C5.02944 19.6136 1 15.5842 1 10.6136C1 5.64308 5.02944 1.61365 10 1.61365C14.9706 1.61365 19 5.64308 19 10.6136ZM14.8418 7.66804C15.0527 7.42683 15.0527 7.03576 14.8418 6.79455C14.631 6.55335 14.289 6.55335 14.0782 6.79455L9.42 12.1225L6.92184 9.26514C6.71095 9.02393 6.36905 9.02393 6.15816 9.26514C5.94728 9.50635 5.94728 9.89742 6.15816 10.1386L9.03816 13.4327C9.24905 13.6739 9.59095 13.6739 9.80184 13.4327L14.8418 7.66804Z" fill="white"/>
</svg>
