<svg width="14.000000" height="14.000000" viewBox="0 0 14 14" fill="none" xmlns="http://www.w3.org/2000/svg" xmlns:xlink="http://www.w3.org/1999/xlink">
	<desc>
			Created with Pixso.
	</desc>
	<defs>
		<clipPath id="clip7_727">
			<rect width="14.000000" height="14.000000" fill="white" fill-opacity="0"/>
		</clipPath>
	</defs>
	<g clip-path="url(#clip7_727)">
		<path d="M10.8707 9.14087L11.8721 6.13708C12.7467 3.51303 13.1841 2.20102 12.4915 1.50842C11.799 0.815857 10.4869 1.2532 7.86279 2.1279L4.85901 3.12915C2.74121 3.83511 1.68225 4.18808 1.38135 4.70569C1.09509 5.19812 1.09509 5.80627 1.38135 6.29871C1.68225 6.81631 2.74121 7.16928 4.85901 7.87524C5.12146 7.96274 5.41675 7.90027 5.61328 7.70554L8.82495 4.52368C9.00562 4.34467 9.29724 4.34604 9.4762 4.5267C9.65527 4.7074 9.65393 4.99899 9.47314 5.17798L6.31348 8.30847C6.0968 8.5231 6.0282 8.85159 6.12463 9.14087C6.83057 11.2587 7.18359 12.3177 7.70117 12.6186C8.1936 12.9048 8.80176 12.9048 9.29419 12.6186C9.81189 12.3177 10.1648 11.2587 10.8707 9.14087Z" fill="#FFFFFF" fill-opacity="1.000000" fill-rule="nonzero"/>
	</g>
</svg>
