<svg width="24.000000" height="24.000000" viewBox="0 0 24 24" fill="none" xmlns="http://www.w3.org/2000/svg" xmlns:xlink="http://www.w3.org/1999/xlink">
	<desc>
			Created with Pixso.
	</desc>
	<defs>
		<linearGradient id="paint_linear_12_32_0" x1="11.578521" y1="3.499878" x2="11.578521" y2="20.933250" gradientUnits="userSpaceOnUse">
			<stop stop-color="#6D63CF"/>
			<stop offset="1.000000" stop-color="#5244DF"/>
		</linearGradient>
	</defs>
	<path id="Subtract" d="M18.4832 19.7901L18.4838 19.7884L18.5012 19.7449L21.5 4.62579L21.5 4.57669C21.5 4.19998 21.3608 3.87112 21.0579 3.67389C20.7928 3.50122 20.488 3.48892 20.2744 3.50513C20.0483 3.52228 19.8352 3.5787 19.6877 3.62567C19.6118 3.64984 19.5483 3.6731 19.5028 3.6907C19.48 3.69955 19.4615 3.70706 19.4481 3.71265L19.4349 3.7182L2.71509 10.2771L2.71045 10.2788C2.70142 10.2821 2.68951 10.2865 2.67511 10.2921C2.6463 10.3033 2.60718 10.3193 2.56122 10.3402C2.47095 10.3811 2.34619 10.4442 2.21967 10.5309C2.00482 10.678 1.5957 11.0263 1.66479 11.5786C1.72205 12.0359 2.03735 12.3264 2.24988 12.4769C2.36383 12.5575 2.47284 12.6156 2.55267 12.6536C2.59314 12.6729 2.6275 12.6876 2.65308 12.6981C2.66589 12.7033 2.67664 12.7075 2.68494 12.7106L2.69556 12.7146L2.70233 12.7171L5.62756 13.7019C5.61774 13.8854 5.63593 14.0726 5.68457 14.2572L7.1499 19.8156C7.32361 20.4747 7.91986 20.9337 8.60144 20.9333C9.21234 20.9328 9.75415 20.5632 9.98438 20.0118L12.272 17.5657L16.201 20.5779L16.2569 20.6023C16.6138 20.7581 16.9473 20.8075 17.2523 20.7658C17.5568 20.7242 17.7988 20.5965 17.9805 20.4511C18.1594 20.308 18.2819 20.1465 18.359 20.0249C18.3982 19.9631 18.4274 19.9088 18.4476 19.868C18.4578 19.8475 18.4658 19.8301 18.4719 19.8166L18.4794 19.7991L18.4821 19.7927L18.4832 19.7901ZM7.13501 13.8748C7.10168 13.7485 7.15399 13.6151 7.26428 13.5451L17.1863 7.2442C17.1863 7.2442 17.7698 6.88989 17.749 7.2442C17.749 7.2442 17.8531 7.30676 17.5405 7.59848C17.2438 7.87558 10.4688 14.4166 9.7832 15.0785C9.74365 15.1167 9.72003 15.1606 9.70605 15.2137L8.60028 19.4332L7.13501 13.8748Z" fill="url(#paint_linear_12_32_0)" fill-opacity="1.000000" fill-rule="evenodd"/>
</svg>
