<svg width="14.000000" height="14.000000" viewBox="0 0 14 14" fill="none" xmlns="http://www.w3.org/2000/svg" xmlns:xlink="http://www.w3.org/1999/xlink">
	<desc>
			Created with Pixso.
	</desc>
	<defs>
		<clipPath id="clip2_573">
			<rect width="14.000000" height="14.000000" fill="white" fill-opacity="0"/>
		</clipPath>
	</defs>
	<g clip-path="url(#clip2_573)">
		<path d="M12.8333 7C12.8333 10.2217 10.2216 12.8333 7 12.8333C3.77832 12.8333 1.16666 10.2217 1.16666 7C1.16666 3.77832 3.77832 1.16663 7 1.16663C10.2216 1.16663 12.8333 3.77832 12.8333 7ZM7 4.52075C6.63754 4.52075 6.34375 4.81458 6.34375 5.177C6.34375 5.4187 6.14786 5.6145 5.90625 5.6145C5.66461 5.6145 5.46875 5.4187 5.46875 5.177C5.46875 4.3313 6.1543 3.64575 7 3.64575C7.84567 3.64575 8.53125 4.3313 8.53125 5.177C8.53125 5.59167 8.36584 5.96863 8.09839 6.2439C8.04456 6.29932 7.99323 6.35059 7.94424 6.39954C7.81833 6.52539 7.70804 6.63562 7.61127 6.75989C7.48349 6.92407 7.4375 7.04468 7.4375 7.14575L7.4375 7.58325C7.4375 7.82495 7.24161 8.02075 7 8.02075C6.75836 8.02075 6.5625 7.82495 6.5625 7.58325L6.5625 7.14575C6.5625 6.76355 6.74042 6.45422 6.92075 6.22253C7.0542 6.05103 7.22192 5.88367 7.35803 5.7478C7.39908 5.70679 7.43726 5.6687 7.47076 5.63428C7.586 5.51562 7.65625 5.35498 7.65625 5.177C7.65625 4.81458 7.36243 4.52075 7 4.52075ZM7 9.91663C7.32214 9.91663 7.58331 9.65552 7.58331 9.33325C7.58331 9.01111 7.32214 8.75 7 8.75C6.67783 8.75 6.41666 9.01111 6.41666 9.33325C6.41666 9.65552 6.67783 9.91663 7 9.91663Z" fill="#FFFFFF" fill-opacity="1.000000" fill-rule="evenodd"/>
	</g>
</svg>
