<svg width="14.000000" height="14.000000" viewBox="0 0 14 14" fill="none" xmlns="http://www.w3.org/2000/svg" xmlns:xlink="http://www.w3.org/1999/xlink">
	<desc>
			Created with Pixso.
	</desc>
	<defs>
		<clipPath id="clip2_568">
			<rect width="14.000000" height="14.000000" fill="white" fill-opacity="0"/>
		</clipPath>
	</defs>
	<g clip-path="url(#clip2_568)">
		<circle cx="5.250580" cy="3.500000" r="2.333333" fill="#FFFFFF" fill-opacity="1.000000"/>
		<ellipse cx="5.250580" cy="9.917236" rx="4.083333" ry="2.333333" fill="#FFFFFF" fill-opacity="1.000000"/>
		<path d="M8.74976 5.25049C9.71625 5.25049 10.4998 4.46704 10.4998 3.50049C10.4998 2.53394 9.71625 1.75049 8.74976 1.75049C8.53925 1.75049 8.3374 1.78772 8.15045 1.85583C8.42606 2.34094 8.58344 2.90198 8.58344 3.49988C8.58344 4.09814 8.42581 4.65955 8.14984 5.1449C8.33698 5.21326 8.539 5.25049 8.74976 5.25049ZM9.61261 11.667C11.0623 11.667 12.2498 10.8835 12.2498 9.91699C12.2498 8.95044 11.0609 8.16699 9.61111 8.16699C10.0391 8.63416 10.3334 9.2207 10.3334 9.91785C10.3334 10.6141 10.0397 11.2001 9.61261 11.667Z" fill="#FFFFFF" fill-opacity="1.000000" fill-rule="evenodd"/>
	</g>
</svg>
