<svg width="16.666687" height="16.666687" viewBox="0 0 16.6667 16.6667" fill="none" xmlns="http://www.w3.org/2000/svg" xmlns:xlink="http://www.w3.org/1999/xlink">
	<desc>
			Created with Pixso.
	</desc>
	<defs/>
	<path id="Vector" d="M8.33337 16.6667C3.73096 16.6667 0 12.9357 0 8.33331C0 3.73096 3.73096 0 8.33337 0C12.9357 0 16.6667 3.73096 16.6667 8.33331C16.6667 12.9357 12.9357 16.6667 8.33337 16.6667ZM6.64142 5.39142C6.39734 5.6355 6.39734 6.03119 6.64142 6.27527L8.69946 8.33331L6.64142 10.3914C6.39734 10.6355 6.39734 11.0312 6.64142 11.2753C6.8855 11.5193 7.28119 11.5193 7.52527 11.2753L10.0253 8.77527C10.2693 8.53119 10.2693 8.1355 10.0253 7.89142L7.52527 5.39142C7.28119 5.14734 6.8855 5.14734 6.64142 5.39142Z" fill="#FFFFFF" fill-opacity="1.000000" fill-rule="evenodd"/>
</svg>
