<svg width="16.666626" height="16.666626" viewBox="0 0 16.6666 16.6666" fill="none" xmlns="http://www.w3.org/2000/svg" xmlns:xlink="http://www.w3.org/1999/xlink">
	<desc>
			Created with Pixso.
	</desc>
	<defs/>
	<path id="Vector" d="M16.6666 8.33337C16.6666 12.9357 12.9357 16.6666 8.33337 16.6666C3.73096 16.6666 0 12.9357 0 8.33337C0 3.73096 3.73096 0 8.33337 0C12.9357 0 16.6666 3.73096 16.6666 8.33337ZM8.33337 13.125C8.67847 13.125 8.95837 12.8452 8.95837 12.5L8.95837 7.5C8.95837 7.15479 8.67847 6.875 8.33337 6.875C7.98816 6.875 7.70837 7.15479 7.70837 7.5L7.70837 12.5C7.70837 12.8452 7.98816 13.125 8.33337 13.125ZM8.33337 4.16663C8.79358 4.16663 9.16663 4.53979 9.16663 5C9.16663 5.46021 8.79358 5.83337 8.33337 5.83337C7.87305 5.83337 7.5 5.46021 7.5 5C7.5 4.53979 7.87305 4.16663 8.33337 4.16663Z" fill="#9897A8" fill-opacity="1.000000" fill-rule="evenodd"/>
</svg>
