<svg width="10.500122" height="10.544434" viewBox="0 0 10.5001 10.5444" fill="none" xmlns="http://www.w3.org/2000/svg" xmlns:xlink="http://www.w3.org/1999/xlink">
	<desc>
			Created with Pixso.
	</desc>
	<defs/>
	<path id="Vector" d="M9.88354 3.62268C8.4878 2.3053 7.44765 1.42346 5.83542 0.200684C5.48799 -0.0628662 5.00883 -0.0675049 4.65751 0.190796C3.01205 1.40051 1.97448 2.29907 0.593872 3.64417C0.212204 4.01599 0.000488281 4.52783 0.000488281 5.06067C0.00037384 6.55737 0.000144958 9.55664 0.000114441 9.64758C-0.00344086 9.86816 0.07444 10.0824 0.218864 10.2491C0.300835 10.3424 0.40181 10.417 0.515007 10.4679C0.628204 10.5188 0.750992 10.5449 0.875114 10.5444L3.50011 10.5444C3.61615 10.5444 3.72743 10.4984 3.80948 10.4164C3.89153 10.3342 3.93761 10.223 3.93761 10.1069L3.93761 7.48193C3.93761 7.36597 3.98371 7.25464 4.06576 7.17261C4.1478 7.09058 4.25909 7.04443 4.37511 7.04443L6.12511 7.04443C6.24115 7.04443 6.35243 7.09058 6.43448 7.17261C6.51653 7.25464 6.56261 7.36597 6.56261 7.48193L6.56261 10.1069C6.56261 10.223 6.60871 10.3342 6.69076 10.4164C6.7728 10.4984 6.88409 10.5444 7.00011 10.5444L9.62512 10.5444C9.77024 10.5458 9.9133 10.51 10.0407 10.4406C10.1794 10.365 10.2952 10.2537 10.3761 10.1179C10.4569 9.9823 10.4997 9.82739 10.5001 9.66943C10.5001 9.57874 10.5001 6.57422 10.5001 5.06201C10.5001 4.51782 10.2793 3.99622 9.88354 3.62268Z" fill="#FFFFFF" fill-opacity="1.000000" fill-rule="nonzero"/>
</svg>
