<svg width="16.666687" height="16.666687" viewBox="0 0 16.6667 16.6667" fill="none" xmlns="http://www.w3.org/2000/svg" xmlns:xlink="http://www.w3.org/1999/xlink">
	<desc>
			Created with Pixso.
	</desc>
	<defs/>
	<path id="Vector" d="M8.33331 16.6667C12.9357 16.6667 16.6667 12.9357 16.6667 8.33331C16.6667 3.73096 12.9357 0 8.33331 0C3.73096 0 0 3.73096 0 8.33331C0 12.9357 3.73096 16.6667 8.33331 16.6667ZM10.0253 5.39142C10.2693 5.6355 10.2693 6.03119 10.0253 6.27527L7.96722 8.33331L10.0253 10.3914C10.2693 10.6355 10.2693 11.0312 10.0253 11.2753C9.78119 11.5193 9.3855 11.5193 9.14142 11.2753L6.64142 8.77527C6.39734 8.53119 6.39734 8.1355 6.64142 7.89142L9.14142 5.39142C9.3855 5.14734 9.78119 5.14734 10.0253 5.39142Z" fill="#FFFFFF" fill-opacity="1.000000" fill-rule="evenodd"/>
</svg>
