<svg width="14.000000" height="14.000000" viewBox="0 0 14 14" fill="none" xmlns="http://www.w3.org/2000/svg" xmlns:xlink="http://www.w3.org/1999/xlink">
	<desc>
			Created with Pixso.
	</desc>
	<defs>
		<clipPath id="clip2_576">
			<rect width="14.000000" height="14.000000" fill="white" fill-opacity="0"/>
		</clipPath>
	</defs>
	<g clip-path="url(#clip2_576)">
		<path d="M12.8334 7C12.8334 10.2217 10.2217 12.8333 7.00003 12.8333C6.06689 12.8333 5.18491 12.6141 4.40277 12.2246C4.19492 12.1211 3.95734 12.0867 3.733 12.1466L2.43448 12.494C1.87079 12.6449 1.3551 12.1292 1.50592 11.5656L1.85336 10.267C1.91339 10.0427 1.87891 9.80505 1.77539 9.59729C1.3858 8.81506 1.16672 7.93311 1.16672 7C1.16672 3.77832 3.77838 1.16663 7.00003 1.16663C10.2217 1.16663 12.8334 3.77832 12.8334 7ZM4.66672 7.58325C4.34454 7.58325 4.08337 7.32214 4.08337 7C4.08337 6.67773 4.34454 6.41663 4.66672 6.41663C4.98886 6.41663 5.25003 6.67773 5.25003 7C5.25003 7.32214 4.98886 7.58325 4.66672 7.58325ZM6.41672 7C6.41672 7.32214 6.67789 7.58325 7.00003 7.58325C7.3222 7.58325 7.58337 7.32214 7.58337 7C7.58337 6.67773 7.3222 6.41663 7.00003 6.41663C6.67789 6.41663 6.41672 6.67773 6.41672 7ZM9.33337 7.58325C9.0112 7.58325 8.75003 7.32214 8.75003 7C8.75003 6.67773 9.0112 6.41663 9.33337 6.41663C9.65555 6.41663 9.91672 6.67773 9.91672 7C9.91672 7.32214 9.65555 7.58325 9.33337 7.58325Z" fill="#FFFFFF" fill-opacity="1.000000" fill-rule="evenodd"/>
	</g>
</svg>
