<svg width="9.877563" height="8.617676" viewBox="0 0 9.87756 8.61768" fill="none" xmlns="http://www.w3.org/2000/svg" xmlns:xlink="http://www.w3.org/1999/xlink">
	<desc>
			Created with Pixso.
	</desc>
	<defs/>
	<path id="Vector" d="M3.88391 0.332581L0.980103 2.9137C0.437256 3.39618 0.165894 3.63745 0.0657959 3.92236C-0.0219727 4.17255 -0.0219727 4.44513 0.0657959 4.69531C0.165894 4.98022 0.437256 5.2215 0.980103 5.70398L3.88391 8.2851C4.13025 8.50409 4.25342 8.61353 4.35803 8.61749C4.44885 8.62085 4.53613 8.58167 4.59399 8.51147C4.66052 8.43073 4.66052 8.26593 4.66052 7.93634L4.66052 6.30884C6.0769 6.30884 7.573 6.76373 8.66528 7.57129C9.23401 7.9917 9.51831 8.2019 9.62671 8.1936C9.73218 8.18555 9.79919 8.14429 9.854 8.05371C9.91016 7.96075 9.8606 7.67029 9.76135 7.08942C9.1167 3.3175 6.52087 2.30884 4.66052 2.30884L4.66052 0.681335C4.66052 0.351746 4.66052 0.186951 4.59399 0.106201C4.53613 0.0360107 4.44885 -0.00317383 4.35803 0.000183105C4.25342 0.00415039 4.13025 0.113586 3.88391 0.332581Z" fill="#9897A8" fill-opacity="1.000000" fill-rule="nonzero"/>
</svg>
