<svg width="10.500000" height="11.666626" viewBox="0 0 10.5 11.6666" fill="none" xmlns="http://www.w3.org/2000/svg" xmlns:xlink="http://www.w3.org/1999/xlink">
	<desc>
			Created with Pixso.
	</desc>
	<defs/>
	<path id="Vector" d="M9.18701 4.49402L9.18701 4.08337C9.18701 1.82812 7.42432 0 5.25 0C3.07568 0 1.31299 1.82812 1.31299 4.08337L1.31299 4.49402C1.31299 4.98694 1.17236 5.46887 0.908691 5.87903L0.262695 6.88403C-0.327393 7.802 0.123169 9.0498 1.14941 9.34009C3.83411 10.0995 6.66589 10.0995 9.35059 9.34009C10.3768 9.0498 10.8274 7.802 10.2373 6.88403L9.59131 5.87903C9.32764 5.46887 9.18701 4.98694 9.18701 4.49402ZM5.25 11.6666C4.3833 11.6666 3.61255 11.2648 3.12183 10.6411C4.53455 10.8325 5.96545 10.8325 7.37817 10.6411C6.88745 11.2648 6.1167 11.6666 5.25 11.6666Z" fill="#FFFFFF" fill-opacity="1.000000" fill-rule="evenodd"/>
</svg>
