<svg width="11.666672" height="11.666626" viewBox="0 0 11.6667 11.6666" fill="none" xmlns="http://www.w3.org/2000/svg" xmlns:xlink="http://www.w3.org/1999/xlink">
	<desc>
			Created with Pixso.
	</desc>
	<defs/>
	<path id="Vector" d="M4.17268 1.98816C4.91156 0.66272 5.28099 0 5.83333 0C6.38567 0 6.75511 0.66272 7.49399 1.98816L7.68515 2.33118C7.89511 2.70776 8.00009 2.89612 8.16379 3.02039C8.32747 3.14465 8.53134 3.1908 8.93907 3.28308L9.31027 3.36707C10.7451 3.69165 11.4625 3.854 11.6332 4.40283C11.8038 4.95166 11.3148 5.52368 10.3366 6.66748L10.0835 6.96338C9.80559 7.28845 9.66661 7.45093 9.60408 7.65198C9.54156 7.85303 9.56256 8.06995 9.6046 8.50354L9.64285 8.89844C9.79074 10.4246 9.86469 11.1876 9.41783 11.5267C8.97098 11.866 8.29927 11.5568 6.95586 10.9382L6.60831 10.7782C6.22655 10.6024 6.03566 10.5145 5.83333 10.5145C5.631 10.5145 5.44012 10.6024 5.05836 10.7782L4.71082 10.9382C3.3674 11.5568 2.69568 11.866 2.24884 11.5267C1.80199 11.1876 1.87593 10.4246 2.02382 8.89844L2.06207 8.50354C2.1041 8.06995 2.12511 7.85303 2.06259 7.65198C2.00006 7.45093 1.86108 7.28845 1.58311 6.96338L1.33006 6.66748C0.351898 5.52368 -0.137192 4.95166 0.033493 4.40283C0.204178 3.854 0.921585 3.69165 2.3564 3.36707L2.7276 3.28308C3.13533 3.1908 3.33919 3.14465 3.50288 3.02039C3.66658 2.89612 3.77156 2.70776 3.98152 2.33118L4.17268 1.98816Z" fill="#FFFFFF" fill-opacity="1.000000" fill-rule="evenodd"/>
</svg>
