<svg width="24.000000" height="24.000000" viewBox="0 0 24 24" fill="none" xmlns="http://www.w3.org/2000/svg" xmlns:xlink="http://www.w3.org/1999/xlink">
	<desc>
			Created with Pixso.
	</desc>
	<defs>
		<linearGradient id="paint_linear_12_311_0" x1="11.920786" y1="6.000000" x2="11.920786" y2="18.382530" gradientUnits="userSpaceOnUse">
			<stop stop-color="#6D63CF"/>
			<stop offset="1.000000" stop-color="#5244DF"/>
		</linearGradient>
	</defs>
	<path id="Vector" d="M21.5035 18.381L19.2219 18.381C18.3588 18.381 18.0992 17.682 16.5511 16.1339C15.2 14.8313 14.6292 14.6686 14.2867 14.6686C13.8145 14.6686 13.6847 14.7984 13.6847 15.4505L13.6847 17.5021C13.6847 18.0573 13.5049 18.3825 12.0553 18.3825C10.6484 18.288 9.28424 17.8606 8.07495 17.1355C6.86566 16.4104 5.84595 15.4084 5.09973 14.212C3.32831 12.0071 2.0957 9.41934 1.5 6.65442C1.5 6.31195 1.62976 6.00235 2.28186 6.00235L4.56183 6.00235C5.14819 6.00235 5.35931 6.26349 5.58917 6.86554C6.69635 10.1244 8.58533 12.9579 9.35156 12.9579C9.64557 12.9579 9.7738 12.8281 9.7738 12.0947L9.7738 8.73889C9.67682 7.20798 8.86371 7.07819 8.86371 6.52463C8.87415 6.37863 8.94104 6.24243 9.05023 6.14493C9.15942 6.04742 9.30225 5.99628 9.44855 6.00235L13.0327 6.00235C13.5221 6.00235 13.6847 6.24628 13.6847 6.8327L13.6847 11.3613C13.6847 11.8508 13.8958 12.0134 14.0428 12.0134C14.3368 12.0134 14.5635 11.8508 15.1015 11.3128C16.2569 9.90381 17.2009 8.33401 17.9037 6.65286C17.9755 6.45093 18.1115 6.27805 18.2908 6.16058C18.4701 6.04312 18.6829 5.98755 18.8967 6.00235L21.1782 6.00235C21.8616 6.00235 22.007 6.34479 21.8616 6.8327C21.032 8.6911 20.0055 10.4552 18.7997 12.0947C18.5542 12.47 18.4557 12.6655 18.7997 13.1049C19.0265 13.4474 19.8256 14.1151 20.3635 14.7499C21.1452 15.5297 21.7944 16.4319 22.2853 17.4208C22.4808 18.0557 22.154 18.381 21.5035 18.381Z" fill="url(#paint_linear_12_311_0)" fill-opacity="1.000000" fill-rule="nonzero"/>
</svg>
