<svg width="20" height="21" viewBox="0 0 20 21" fill="none" xmlns="http://www.w3.org/2000/svg">
<path fill-rule="evenodd" clip-rule="evenodd" d="M19 10.5C19 15.4706 14.9706 19.5 10 19.5C5.02944 19.5 1 15.4706 1 10.5C1 5.52944 5.02944 1.5 10 1.5C14.9706 1.5 19 5.52944 19 10.5ZM10 15.675C10.3728 15.675 10.675 15.3728 10.675 15V9.6C10.675 9.22721 10.3728 8.925 10 8.925C9.62721 8.925 9.325 9.22721 9.325 9.6V15C9.325 15.3728 9.62721 15.675 10 15.675ZM10 6C10.4971 6 10.9 6.40294 10.9 6.9C10.9 7.39706 10.4971 7.8 10 7.8C9.50294 7.8 9.1 7.39706 9.1 6.9C9.1 6.40294 9.50294 6 10 6Z" fill="#9897A8"/>
</svg>
